<?xml version="1.0" encoding="utf-8"?>
<!-- Generator: Adobe Illustrator 27.7.0, SVG Export Plug-In . SVG Version: 6.00 Build 0)  -->
<svg version="1.1" id="Layer_1" xmlns="http://www.w3.org/2000/svg" xmlns:xlink="http://www.w3.org/1999/xlink" x="0px" y="0px"
	 viewBox="0 0 500 500" style="enable-background:new 0 0 500 500;" xml:space="preserve">
<style type="text/css">
	.st0{fill-rule:evenodd;clip-rule:evenodd;fill:#24292F;}
</style>
<path class="st0" d="M250.2,4.2C111.8,4.2,0,116.8,0,256.2C0,367.7,71.7,462,171.1,495.4c12.4,2.5,17-5.4,17-12.1
	c0-5.8-0.4-25.9-0.4-46.7c-69.6,15-84.1-30-84.1-30c-11.2-29.2-27.8-36.7-27.8-36.7c-22.8-15.4,1.7-15.4,1.7-15.4
	c25.3,1.7,38.5,25.9,38.5,25.9c22.4,38.4,58.4,27.5,72.9,20.9c2.1-16.3,8.7-27.5,15.7-33.8c-55.5-5.8-113.9-27.5-113.9-124.4
	c0-27.5,9.9-50.1,25.7-67.6c-2.5-6.3-11.2-32.1,2.5-66.8c0,0,21.1-6.7,68.8,25.9c20.4-5.5,41.4-8.3,62.6-8.3
	c21.1,0,42.7,2.9,62.5,8.3c47.6-32.6,68.8-25.9,68.8-25.9c13.7,34.6,5,60.5,2.5,66.8c16.2,17.5,25.7,40.1,25.7,67.6
	c0,96.8-58.4,118.1-114.3,124.4c9.1,7.9,17,22.9,17,46.7c0,33.8-0.4,60.9-0.4,69.3c0,6.7,4.6,14.6,17,12.1
	C428.3,462,500,367.7,500,256.2C500.4,116.8,388.1,4.2,250.2,4.2z"/>
</svg>
