<?xml version="1.0" encoding="utf-8"?>
<!-- Generator: Adobe Illustrator 27.7.0, SVG Export Plug-In . SVG Version: 6.00 Build 0)  -->
<svg version="1.1" id="Layer_1" xmlns="http://www.w3.org/2000/svg" xmlns:xlink="http://www.w3.org/1999/xlink" x="0px" y="0px"
	 viewBox="0 0 500 500" style="enable-background:new 0 0 500 500;" xml:space="preserve">
<style type="text/css">
	.st0{fill:#E24329;}
	.st1{fill:#FC6D26;}
	.st2{fill:#FCA326;}
</style>
<path class="st0" d="M499.9,239.6c0.6,13.5-1,26.9-4.8,39.8c-3.7,12.9-9.5,25.1-17.3,36.2c-7.7,11.1-17.1,20.9-28,29l-0.3,0.2
	L345.3,422L294,460.4l-31.2,23.3c-1.8,1.4-3.9,2.4-6,3.1c-2.1,0.7-4.4,1.1-6.7,1.1c-2.2,0-4.5-0.4-6.7-1.1c-2.1-0.7-4.2-1.8-6-3.1
	l-31.2-23.3L154.9,422L51.3,345.3l-0.6-0.4l-0.2-0.2c-10.9-8.1-20.3-17.9-28.1-29C14.6,304.6,8.8,292.4,5,279.4
	c-3.8-12.9-5.4-26.4-4.8-39.8c0.6-13.5,3.4-26.7,8.2-39.3l0.7-1.8L77.3,23c0.3-0.9,0.8-1.7,1.3-2.5c0.5-0.8,1-1.5,1.6-2.2
	c0.6-0.7,1.2-1.4,1.9-2c0.7-0.6,1.4-1.1,2.2-1.6c1.6-1,3.3-1.7,5.1-2.1c1.8-0.5,3.7-0.7,5.5-0.6c1.9,0.1,3.7,0.5,5.4,1.1
	c1.7,0.6,3.4,1.5,4.9,2.7c0.7,0.6,1.4,1.2,2,1.9c0.6,0.7,1.2,1.4,1.7,2.2c0.5,0.8,1,1.6,1.4,2.4c0.4,0.8,0.7,1.7,0.9,2.6l46,139h186
	l46-139c0.2-0.9,0.6-1.8,1-2.6c0.4-0.8,0.8-1.6,1.4-2.4c0.5-0.8,1-1.5,1.7-2.2c0.6-0.7,1.3-1.3,2-1.9c1.5-1.1,3.1-2,4.8-2.7
	c1.8-0.6,3.6-1,5.4-1.1c1.9-0.1,3.7,0.1,5.5,0.5c1.8,0.5,3.5,1.2,5.1,2.2c0.8,0.5,1.5,1,2.2,1.6c0.7,0.6,1.3,1.2,1.9,2
	c0.6,0.7,1.1,1.5,1.6,2.3c0.5,0.8,0.9,1.6,1.2,2.5L491,198.6l0.7,1.8C496.5,212.9,499.3,226.2,499.9,239.6L499.9,239.6z"/>
<path class="st1" d="M499.9,239.7c0.6,13.4-1,26.9-4.8,39.8c-3.8,12.9-9.6,25.2-17.3,36.3s-17.2,20.9-28,29l-0.3,0.2l-104.3,77.2
	c0,0-44.3-33-95.2-71.1l149.4-111.7c6.7-5,13.8-9.6,21-13.8c7.2-4.3,14.8-8.1,22.4-11.5c7.7-3.4,15.6-6.4,23.6-9
	c8-2.6,16.2-4.7,24.5-6.4l0.7,1.8C496.5,213,499.3,226.2,499.9,239.7L499.9,239.7z"/>
<path class="st2" d="M250.1,351c50.9,38,95.2,71.1,95.2,71.1L294,460.5l-31.2,23.3c-1.8,1.4-3.9,2.4-6,3.1s-4.4,1.1-6.7,1.1
	c-2.2,0-4.5-0.4-6.7-1.1s-4.2-1.8-6-3.1l-31.2-23.3l-51.3-38.4C154.9,422.1,199.2,389,250.1,351z"/>
<path class="st1" d="M250.1,350.9c-51,38.1-95.2,71.1-95.2,71.1L51.3,345.3l-0.6-0.4l-0.2-0.2c-10.9-8.1-20.3-17.9-28.1-29
	C14.6,304.6,8.8,292.4,5,279.4c-3.8-12.9-5.4-26.4-4.8-39.8c0.6-13.5,3.4-26.7,8.2-39.3l0.7-1.8c8.3,1.7,16.4,3.8,24.5,6.4
	c8,2.6,15.9,5.6,23.6,9c7.7,3.4,15.2,7.3,22.4,11.5c7.2,4.2,14.2,8.9,21,13.9L250.1,350.9z"/>
</svg>
