<svg xmlns="http://www.w3.org/2000/svg" viewBox="0 0 168.46 150"><defs><style>.a{fill:#212121;}.b{fill:#fff;}</style></defs><title>LinkedIn</title><path class="a" d="M118.68,0H49.78A15.32,15.32,0,0,0,36.5,7.67L2.05,67.33a15.39,15.39,0,0,0,0,15.34L36.5,142.33A15.32,15.32,0,0,0,49.78,150h68.9A15.32,15.32,0,0,0,132,142.33l34.45-59.66a15.34,15.34,0,0,0,0-15.34L132,7.67A15.32,15.32,0,0,0,118.68,0Z"/><path d="M91.7,112.09c0-8.4,0-16.51,0-24.61a42.06,42.06,0,0,1,.66-9.41c1.11-4.54,4.44-6.9,9.19-6.84,4.54.06,7,2.75,7.81,7a41.89,41.89,0,0,1,.59,7.42c.07,8.77,0,17.53,0,26.41h18.17c0-13.16.83-26-.25-38.69C127,63,119.16,56.75,109,56.07c-6.63-.44-12.22,2.09-16.91,7.33-.33-2.27-.59-4-.85-5.74H73.41v54.43ZM63.39,57.67h-18v54.27h18ZM54.18,31.14c-6,.13-10.31,4.31-10.28,9.91s4.49,9.82,10.36,9.82c6.08,0,10.83-4.55,10.62-10.17S60,31,54.18,31.14Z"/><path class="b" d="M91.7,112.09H73.41V57.66h17.8c.26,1.76.52,3.47.85,5.74,4.69-5.24,10.28-7.77,16.91-7.33,10.19.68,18.07,6.88,19,17.26,1.08,12.68.25,25.53.25,38.69H110c0-8.88,0-17.64,0-26.41a41.89,41.89,0,0,0-.59-7.42c-.8-4.21-3.27-6.9-7.81-7-4.75-.06-8.08,2.3-9.19,6.84a42.06,42.06,0,0,0-.66,9.41C91.65,95.58,91.7,103.69,91.7,112.09Z"/><path class="b" d="M63.39,57.67v54.27h-18V57.67Z"/><path class="b" d="M54.18,31.14C60,31,64.68,35.2,64.88,40.7S60.34,50.86,54.26,50.87c-5.87,0-10.33-4.23-10.36-9.82S48.2,31.27,54.18,31.14Z"/></svg>