<svg id="Layer_1" data-name="Layer 1" xmlns="http://www.w3.org/2000/svg" viewBox="0 0 100 100"><defs><style>.cls-1{fill:#78160c;}</style></defs><title>phone</title><path class="cls-1" d="M23,0c4.27,7.29,8.7,14.48,12.64,21.94.72,1.37,0,4.32-1.08,5.65-2.09,2.51-4.91,4.43-7.51,6.5-3,2.41-3.77,5.08-1.9,8.69A73.43,73.43,0,0,0,58.38,75.34c1.62.81,4.89.07,6.45-1.15,3-2.32,5.2-5.54,7.79-8.34,2-2.17,4.1-2.22,6.66-.7C86.13,69.2,93.09,73.06,100,77v6c-1.5,7.26-6.23,11.67-12.77,14.52-1.77.77-3.49,1.65-5.23,2.48H70a10.44,10.44,0,0,0-1.71-.91c-32.9-10.12-54.73-31.65-66-64C1.44,32.73.75,30.35,0,28V21C3,11.41,6.58,2.36,18,0Z"/></svg>