<svg xmlns="http://www.w3.org/2000/svg" viewBox="0 0 102.61 103.35"><defs><style>.a{fill:#78160c;stroke:#78160c;stroke-miterlimit:10;stroke-width:4px;}</style></defs><title>link</title><path class="a" d="M76,2C85.59,4,91.34,11.09,97,18c5.21,6.34,4.67,15.91-.77,22.14C92.4,44.5,88.06,48.44,84,52.63c-1.15,1.19-1.89,1.3-3.24.13-5.65-4.87-5.7-4.81-.51-10,2.58-2.6,5.23-5.13,7.71-7.82,4-4.29,4-8.52,0-12.81Q84.64,18.42,81,15c-4.28-4-8.66-4.13-12.8-.07q-12.65,12.41-25,25.14c-4,4.18-3.88,8.48.12,12.78,1.7,1.83,3.45,3.62,5.3,5.3,1.5,1.37,1.74,2.36.21,4.06-4.69,5.18-4.54,5.19-9.61.27-4.52-4.38-8.4-9-8.41-15.77,0-4.72,1.26-9,4.51-12.34C44.23,25.19,53.14,16,62.5,7.21A20.19,20.19,0,0,1,73,2Z" transform="translate(0)"/><path class="a" d="M27.82,101.35a41.74,41.74,0,0,1-4.9-.82C16.3,98.66,4.66,86.81,2.78,80.14A17.11,17.11,0,0,1,6.5,63.35c3.74-4.25,8-8.05,11.86-12.18,1.44-1.53,2.27-1.15,3.63.08,5.25,4.76,5.29,4.72.42,9.6-2.59,2.6-5.24,5.13-7.74,7.81-3.93,4.21-4,8.71-.25,12.88A104,104,0,0,0,21.84,89c4.11,3.71,8.48,3.76,12.46-.13Q47,76.43,59.34,63.68c4-4.15,3.8-8.51-.16-12.85-1.24-1.35-2.57-2.62-3.86-3.92-3.47-3.48-3.47-3.48.08-7,4.08-4.06,3.05-3.42,6.71.19,1.55,1.52,3.12,3,4.58,4.62,6.7,7.36,7,17.7.24,24.9-8.7,9.2-17.75,18.08-26.79,26.94A16.77,16.77,0,0,1,27.82,101.35Z" transform="translate(0)"/></svg>