<svg xmlns="http://www.w3.org/2000/svg" viewBox="0 0 168.46 150"><defs><style>.a{fill:#212121;}.b{fill:#fff;}</style></defs><title>Facebook</title><path class="a" d="M118.68,0H49.78A15.32,15.32,0,0,0,36.5,7.67L2.05,67.33a15.39,15.39,0,0,0,0,15.34L36.5,142.33A15.32,15.32,0,0,0,49.78,150h68.9A15.32,15.32,0,0,0,132,142.33l34.45-59.66a15.34,15.34,0,0,0,0-15.34L132,7.67A15.32,15.32,0,0,0,118.68,0Z" transform="translate(0)"/><path class="b" d="M108.14,30H85.55c-5.37.65-13.32,4.17-14.11,14.55v18.9H60.32V82.94h11.4v42.81H91.88V82.94h14.5l.93-20L92.25,63l0-10.93A2.84,2.84,0,0,1,95.4,49c4,0,8.77,0,12.74,0Z" transform="translate(0)"/></svg>