<svg xmlns="http://www.w3.org/2000/svg" viewBox="0 0 168.46 150"><defs><style>.a{fill:#212121;}.b{fill:#fff;}</style></defs><title>Github</title><path class="a" d="M118.68,0H49.78A15.32,15.32,0,0,0,36.5,7.67L2.05,67.33a15.39,15.39,0,0,0,0,15.34L36.5,142.33A15.32,15.32,0,0,0,49.78,150h68.9A15.32,15.32,0,0,0,132,142.33l34.45-59.66a15.34,15.34,0,0,0,0-15.34L132,7.67A15.32,15.32,0,0,0,118.68,0Z" transform="translate(0)"/><path class="b" d="M43.94,95.06c5.55,3.23,7,9.29,10.64,13.77,3.2,4,8.3,3.88,13,3.41,2.73-.27,3.61.51,3.41,3.16-.17,2.31,0,4.65,0,7,0,6.36-1.48,7.34-7.49,4.71-16.79-7.35-27.48-20-32.12-37.67-7.71-29.3,9.2-58.48,38.1-66,29.82-7.78,60.4,9.72,67.84,38.82,6.69,26.2-6.59,53.87-31,64.6-6.78,3-8.29,2-8.26-5.23,0-3.82,0-7.65.08-11.48.1-4.51-.18-8.92-3.29-13,3.64-.72,6.91-1.2,10.07-2,12.89-3.44,19.44-20.29,12-31.35-1.88-2.8-2.67-5.23-2.11-8.56s1-7.8-1.9-9.81-6.46.62-9.14,2.39A13.88,13.88,0,0,1,92,49.63a34.41,34.41,0,0,0-15.86.14A12.26,12.26,0,0,1,65.9,48c-3-1.87-6.88-5-9.92-2.47-2.77,2.32-2.55,7-1.68,10.86a6.16,6.16,0,0,1-.9,5.5,21.79,21.79,0,0,0,14,34c2.07.39,4.32.07,6.41,1.35-2,3.94-2.38,9.1-8.89,8.78-5.13-.25-8.07-2.92-10.71-6.92a8.87,8.87,0,0,0-10.3-4" transform="translate(0)"/></svg>